<svg xmlns="http://www.w3.org/2000/svg" x="0px" y="0px"
width="30" height="30"
viewBox="0 0 172 172"
style=" fill:#000000;"><g fill="none" fill-rule="nonzero" stroke="none" stroke-width="1" stroke-linecap="butt" stroke-linejoin="miter" stroke-miterlimit="10" stroke-dasharray="" stroke-dashoffset="0" font-family="none" font-weight="none" font-size="none" text-anchor="none" style="mix-blend-mode: normal"><path d="M0,172v-172h172v172z" fill="none"></path><g fill="#f0572d"><path d="M17.2,0c-9.44656,0 -17.2,7.75344 -17.2,17.2v54.7175c0,3.06375 0.80625,5.9125 2.0425,8.385l0.1075,0.1075l7.955,14.19c3.01,5.16 8.66719,8.6 15.05,8.6h16.125v-6.88h-16.125c-3.91031,0 -7.21594,-2.09625 -9.03,-5.16l-0.9675,-1.72h141.685l-0.9675,1.72c-1.76031,2.94281 -5.54969,5.16 -9.03,5.16h-16.125v6.88h16.125c6.1275,0 11.97281,-3.31906 15.05,-8.6l7.955,-14.19l0.1075,-0.1075c1.23625,-2.4725 2.0425,-5.32125 2.0425,-8.385v-54.7175c0,-9.44656 -7.75344,-17.2 -17.2,-17.2zM17.2,6.88h137.6c5.6975,0 10.32,4.6225 10.32,10.32v51.6h-158.24v-51.6c0,-5.6975 4.6225,-10.32 10.32,-10.32zM130.72,20.64v11.18l-9.675,-5.59l-3.44,6.02l9.675,5.59l-9.675,5.59l3.44,6.02l9.675,-5.59v11.18h6.88v-11.18l9.675,5.59l3.44,-6.02l-9.675,-5.59l9.675,-5.59l-3.44,-6.02l-9.675,5.59v-11.18zM7.74,75.68h156.52c-0.18812,0.51063 -0.29562,1.02125 -0.5375,1.505l-3.01,5.375h-149.425l-3.01,-5.375c-0.24187,-0.48375 -0.34937,-0.99437 -0.5375,-1.505zM55.04,96.32c-3.80281,0 -6.88,3.07719 -6.88,6.88c0,3.80281 3.07719,6.88 6.88,6.88c3.80281,0 6.88,-3.07719 6.88,-6.88c0,-3.80281 -3.07719,-6.88 -6.88,-6.88zM86,96.32c-3.80281,0 -6.88,3.07719 -6.88,6.88c0,3.80281 3.07719,6.88 6.88,6.88c3.80281,0 6.88,-3.07719 6.88,-6.88c0,-3.80281 -3.07719,-6.88 -6.88,-6.88zM116.96,96.32c-3.80281,0 -6.88,3.07719 -6.88,6.88c0,3.80281 3.07719,6.88 6.88,6.88c3.80281,0 6.88,-3.07719 6.88,-6.88c0,-3.80281 -3.07719,-6.88 -6.88,-6.88zM51.6,116.96c-3.80281,0 -6.88,3.07719 -6.88,6.88c0,3.80281 3.07719,6.88 6.88,6.88c3.80281,0 6.88,-3.07719 6.88,-6.88c0,-3.80281 -3.07719,-6.88 -6.88,-6.88zM86,116.96c-3.80281,0 -6.88,3.07719 -6.88,6.88c0,3.80281 3.07719,6.88 6.88,6.88c3.80281,0 6.88,-3.07719 6.88,-6.88c0,-3.80281 -3.07719,-6.88 -6.88,-6.88zM120.4,116.96c-3.80281,0 -6.88,3.07719 -6.88,6.88c0,3.80281 3.07719,6.88 6.88,6.88c3.80281,0 6.88,-3.07719 6.88,-6.88c0,-3.80281 -3.07719,-6.88 -6.88,-6.88zM44.72,137.6c-3.80281,0 -6.88,3.07719 -6.88,6.88c0,3.80281 3.07719,6.88 6.88,6.88c3.80281,0 6.88,-3.07719 6.88,-6.88c0,-3.80281 -3.07719,-6.88 -6.88,-6.88zM86,137.6c-3.80281,0 -6.88,3.07719 -6.88,6.88c0,3.80281 3.07719,6.88 6.88,6.88c3.80281,0 6.88,-3.07719 6.88,-6.88c0,-3.80281 -3.07719,-6.88 -6.88,-6.88zM127.28,137.6c-3.80281,0 -6.88,3.07719 -6.88,6.88c0,3.80281 3.07719,6.88 6.88,6.88c3.80281,0 6.88,-3.07719 6.88,-6.88c0,-3.80281 -3.07719,-6.88 -6.88,-6.88zM30.96,158.24c-3.80281,0 -6.88,3.07719 -6.88,6.88c0,3.80281 3.07719,6.88 6.88,6.88c3.80281,0 6.88,-3.07719 6.88,-6.88c0,-3.80281 -3.07719,-6.88 -6.88,-6.88zM86,158.24c-3.80281,0 -6.88,3.07719 -6.88,6.88c0,3.80281 3.07719,6.88 6.88,6.88c3.80281,0 6.88,-3.07719 6.88,-6.88c0,-3.80281 -3.07719,-6.88 -6.88,-6.88zM141.04,158.24c-3.80281,0 -6.88,3.07719 -6.88,6.88c0,3.80281 3.07719,6.88 6.88,6.88c3.80281,0 6.88,-3.07719 6.88,-6.88c0,-3.80281 -3.07719,-6.88 -6.88,-6.88z"></path></g></g></svg>