<svg xmlns="http://www.w3.org/2000/svg" x="0px" y="0px"
width="30" height="30"
viewBox="0 0 172 172"
style=" fill:#000000;"><g fill="none" fill-rule="nonzero" stroke="none" stroke-width="1" stroke-linecap="butt" stroke-linejoin="miter" stroke-miterlimit="10" stroke-dasharray="" stroke-dashoffset="0" font-family="none" font-weight="none" font-size="none" text-anchor="none" style="mix-blend-mode: normal"><path d="M0,172v-172h172v172z" fill="none"></path><g fill="#f0572d"><path d="M153.66453,0c-5.50773,0 -10.79815,2.20545 -14.67375,6.1275l-15.17765,15.32547l9.7825,9.68172l15.17765,-15.33219v-0.00672c1.29128,-1.30676 3.05114,-2.03578 4.89125,-2.03578h18.33547v-13.76zM114.11125,22.85719c-0.87978,0 -1.76139,0.33529 -2.43219,1.00781l-4.03797,4.03125c-4.93984,0.688 -23.25644,3.7955 -32.45156,12.99406l-4.86438,4.86437l38.915,38.915l-48.64375,48.65047l-29.18625,-29.18625l-9.72875,-9.72875l-9.72875,9.72875v0.00672c-10.13214,10.135 -12.58373,23.54424 -9.74219,35.62281c2.84191,12.08015 10.26193,23.26943 19.47094,32.47844l9.72875,-9.72875c-7.81899,-7.81915 -13.78026,-17.30481 -15.8025,-25.90078c-2.02225,-8.59597 -0.81878,-15.85716 6.07375,-22.74969l29.18625,29.18625c5.3153,5.3153 14.1422,5.3153 19.4575,0l48.65047,-48.64375v-0.00672l4.86437,-4.86437l1.42437,-1.41766c1.29,-1.29344 2.01563,-3.02774 2.01563,-4.85094v-36.0864l3.85656,-3.85656c1.34504,-1.34504 1.34504,-3.52277 0,-4.86437l-14.59313,-14.59313c-0.6708,-0.67252 -1.55241,-1.00781 -2.43219,-1.00781zM43.32922,35.36078c-4.31698,0.0895 -7.80934,1.39293 -10.44094,4.02453l-17.58297,17.58297c-5.8824,5.8824 -5.8824,15.4765 0,21.3589l33.13016,33.09656c2.6832,2.6832 7.05227,2.6832 9.73547,0c2.6832,-2.6832 2.6832,-7.05227 0,-9.73547l2.43891,2.4389c2.6832,2.6832 7.01867,2.6832 9.70187,0c2.6832,-2.6832 2.6832,-7.05227 0,-9.73547l2.44563,2.44563c2.6832,2.6832 7.05227,2.6832 9.73547,0c2.6832,-2.6832 2.6832,-7.05227 0,-9.73547l-2.44563,-2.44562c2.6832,2.6832 7.05227,2.6832 9.73547,0c2.6832,-2.6832 2.6832,-7.01867 0,-9.70188l-8.39172,-8.42531l-13.48453,-13.48453l-7.29656,-7.28985l6.29547,-6.29547c-4.1968,-1.8232 -14.19871,-3.09105 -18.98719,-3.78937c-1.62024,-0.2365 -3.14991,-0.3389 -4.58891,-0.30906z"></path></g></g></svg>