<svg xmlns="http://www.w3.org/2000/svg" x="0px" y="0px"
width="30" height="30"
viewBox="0 0 172 172"
style=" fill:#000000;"><g fill="none" fill-rule="nonzero" stroke="none" stroke-width="1" stroke-linecap="butt" stroke-linejoin="miter" stroke-miterlimit="10" stroke-dasharray="" stroke-dashoffset="0" font-family="none" font-weight="none" font-size="none" text-anchor="none" style="mix-blend-mode: normal"><path d="M0,172v-172h172v172z" fill="none"></path><g fill="#f0572d"><path d="M80.625,7.16667c-6.86192,0 -12.54167,5.67975 -12.54167,12.54167v5.375h-23.29167c-8.84188,0 -16.125,7.28312 -16.125,16.125v100.33333c0,8.84188 7.28312,16.125 16.125,16.125h82.41667c8.84188,0 16.125,-7.28312 16.125,-16.125v-100.33333c0,-8.84188 -7.28312,-16.125 -16.125,-16.125h-23.29167v-5.375c0,-6.86192 -5.67974,-12.54167 -12.54167,-12.54167zM80.625,17.91667h10.75c1.05724,0 1.79167,0.73442 1.79167,1.79167v9.86816c-0.09479,0.57703 -0.09479,1.16565 0,1.74268v6.30583c0,1.05724 -0.73442,1.79167 -1.79167,1.79167h-10.75c-1.05724,0 -1.79167,-0.73442 -1.79167,-1.79167v-6.28483c0.09479,-0.57703 0.09479,-1.16565 0,-1.74268v-9.88916c0,-1.05725 0.73442,-1.79167 1.79167,-1.79167zM44.79167,35.83333h23.29167v1.79167c0,6.86192 5.67974,12.54167 12.54167,12.54167h10.75c6.86192,0 12.54167,-5.67974 12.54167,-12.54167v-1.79167h23.29167c3.03329,0 5.375,2.34171 5.375,5.375v100.33333c0,3.03329 -2.34171,5.375 -5.375,5.375h-82.41667c-3.03329,0 -5.375,-2.34171 -5.375,-5.375v-100.33333c0,-3.03329 2.34171,-5.375 5.375,-5.375zM76.61474,57.34033c-7.46288,0 -14.00835,5.18904 -15.70508,12.45768l-2.89746,12.40169c-0.06787,0.29913 -0.11002,0.60351 -0.12598,0.90983c-2.55264,2.58811 -4.13623,6.13514 -4.13623,10.05713v17.91667c0,1.978 1.60533,3.58333 3.58333,3.58333h7.16667c1.978,0 3.58333,-1.60533 3.58333,-3.58333v-3.58333h35.83333v3.58333c0,1.978 1.60533,3.58333 3.58333,3.58333h7.16667c1.978,0 3.58333,-1.60533 3.58333,-3.58333v-17.91667c0,-3.87361 -1.55499,-7.37251 -4.05224,-9.95215c-0.01831,-0.13381 -0.04166,-0.26688 -0.06999,-0.39893l-3.04443,-13.01758c-1.69262,-7.27398 -8.2352,-12.45768 -15.69808,-12.45768zM76.61474,68.09033h18.77051c2.52745,0 4.65598,1.68487 5.22803,4.14323c0.00233,0.00233 0.00466,0.00467 0.007,0.007l1.53972,6.59277h-32.31999l1.53972,-6.59277c0.5751,-2.46369 2.70758,-4.15023 5.23502,-4.15023zM69.875,89.58333c2.967,0 5.375,2.408 5.375,5.375c0,2.967 -2.408,5.375 -5.375,5.375c-2.967,0 -5.375,-2.408 -5.375,-5.375c0,-2.967 2.408,-5.375 5.375,-5.375zM102.125,89.58333c2.967,0 5.375,2.408 5.375,5.375c0,2.967 -2.408,5.375 -5.375,5.375c-2.967,0 -5.375,-2.408 -5.375,-5.375c0,-2.967 2.408,-5.375 5.375,-5.375zM59.125,125.41667c-1.93842,-0.02741 -3.74144,0.99102 -4.71865,2.66532c-0.97721,1.6743 -0.97721,3.74507 0,5.41937c0.97721,1.6743 2.78023,2.69273 4.71865,2.66532h53.75c1.93842,0.02741 3.74144,-0.99102 4.71865,-2.66532c0.97721,-1.6743 0.97721,-3.74507 0,-5.41937c-0.97721,-1.6743 -2.78023,-2.69273 -4.71865,-2.66532z"></path></g></g></svg>