<svg xmlns="http://www.w3.org/2000/svg" x="0px" y="0px"
width="30" height="30"
viewBox="0 0 172 172"
style=" fill:#000000;"><g fill="none" fill-rule="nonzero" stroke="none" stroke-width="1" stroke-linecap="butt" stroke-linejoin="miter" stroke-miterlimit="10" stroke-dasharray="" stroke-dashoffset="0" font-family="none" font-weight="none" font-size="none" text-anchor="none" style="mix-blend-mode: normal"><path d="M0,172v-172h172v172z" fill="none"></path><g fill="#f0572d"><path d="M44.10164,31.24219c-3.3165,-0.00895 -6.28976,2.0428 -7.45821,5.14667l-10.80511,29.11896h68.63689c1.36694,-11.22924 10.89452,-19.67527 22.20665,-19.68581c11.31168,0.01104 20.8386,8.45699 22.20534,19.68581h9.40231l-10.80577,-29.11896c-1.1682,-3.10347 -4.14085,-5.15516 -7.4569,-5.14667zM116.68185,51.19701c-8.34116,0.02514 -15.44086,6.07853 -16.78441,14.31081h33.56816c-1.34351,-8.23203 -8.44285,-14.28534 -16.78375,-14.31081zM23.03271,70.88281l-4.77792,4.46626c-0.0299,0.02788 -0.07374,0.0896 -0.10498,0.11613c-2.98186,2.51736 -4.70529,6.21905 -4.71231,10.12143v26.48395c0.01822,2.10437 0.87235,4.11516 2.3742,5.58932c1.50185,1.47416 3.52818,2.29073 5.63253,2.26978h129.11154c2.10434,0.02094 4.13068,-0.79562 5.63253,-2.26978c1.50185,-1.47416 2.35598,-3.48495 2.3742,-5.58932v-27.70304c-0.0162,-3.65932 -1.52899,-7.15265 -4.18675,-9.66804c-0.04031,-0.03796 -0.10573,-0.09487 -0.14369,-0.13451l-3.41187,-3.68219zM26.53906,85.66406h25.19531c1.48427,0 2.6875,1.20323 2.6875,2.6875v17.46875c0,1.48427 -1.20323,2.6875 -2.6875,2.6875h-25.19531c-1.48427,0 -2.6875,-1.20323 -2.6875,-2.6875v-17.46875c0,-1.48427 1.20323,-2.6875 2.6875,-2.6875zM120.26563,85.66406h25.19531c1.48427,0 2.6875,1.20323 2.6875,2.6875v17.46875c0,1.48427 -1.20323,2.6875 -2.6875,2.6875h-25.19531c-1.48427,0 -2.6875,-1.20323 -2.6875,-2.6875v-17.46875c0,-1.48427 1.20323,-2.6875 2.6875,-2.6875zM69.77396,89.35938h32.45537c1.48427,0 2.6875,1.20323 2.6875,2.6875c0,1.48427 -1.20323,2.6875 -2.6875,2.6875h-0.00197h-32.4534c-1.48427,0 -2.6875,-1.20323 -2.6875,-2.6875c0,-1.48427 1.20323,-2.6875 2.6875,-2.6875zM29.22656,91.03906v12.09375h19.82031v-12.09375zM122.95313,91.03906v12.09375h19.82031v-12.09375zM69.77396,99.77344h32.45537c1.48427,0 2.6875,1.20323 2.6875,2.6875c0,1.48427 -1.20323,2.6875 -2.6875,2.6875h-0.00197h-32.4534c-1.48427,0 -2.6875,-1.20323 -2.6875,-2.6875c0,-1.48427 1.20323,-2.6875 2.6875,-2.6875zM13.4375,122.75957v10.06107c0.03197,4.39743 3.60919,7.94357 8.00673,7.93718h8.86888c4.39305,0.00461 7.96266,-3.54418 7.98376,-7.93718v-7.51595h-16.85265c-2.87032,0.01587 -5.67239,-0.87483 -8.00673,-2.54512zM158.5625,122.75957c-2.33434,1.67029 -5.13641,2.56099 -8.00673,2.54512h-16.85265v7.51595c0.02129,4.39344 3.59159,7.94232 7.98508,7.93718h8.86888c4.39703,0.00567 7.97345,-3.54027 8.00542,-7.93718z"></path></g></g></svg>