<svg xmlns="http://www.w3.org/2000/svg" x="0px" y="0px"
width="30" height="30"
viewBox="0 0 172 172"
style=" fill:#000000;"><g fill="none" fill-rule="nonzero" stroke="none" stroke-width="1" stroke-linecap="butt" stroke-linejoin="miter" stroke-miterlimit="10" stroke-dasharray="" stroke-dashoffset="0" font-family="none" font-weight="none" font-size="none" text-anchor="none" style="mix-blend-mode: normal"><path d="M0,172v-172h172v172z" fill="none"></path><g fill="#f0572d"><path d="M72.24,17.2c-1.89469,0 -3.44,1.54531 -3.44,3.44v13.76c0,1.89469 1.54531,3.44 3.44,3.44h13.76v6.88h20.64v-6.88h13.76c1.90813,0 3.44,-1.54531 3.44,-3.44v-13.76c0,-1.89469 -1.53187,-3.44 -3.44,-3.44zM68.8,48.16c-2.56656,0 -5.14656,1.00781 -7.095,3.01l-15.1575,17.63h-8.7075c-5.30781,0 -10.32,5.01219 -10.32,10.32v41.28c0,5.40188 4.91813,10.32 10.32,10.32h8.7075l15.3725,17.7375c1.80063,1.8275 4.31344,2.9025 6.88,2.9025h44.1825c2.55313,0 5.07938,-1.075 6.88,-2.9025l25.2625,-25.6925c1.81406,-1.84094 2.795,-4.25969 2.795,-6.88v-5.805h3.44v13.76c0,1.90813 1.53188,3.44 3.44,3.44h13.76c1.90813,0 3.44,-1.53187 3.44,-3.44v-55.04c0,-1.90812 -1.53187,-3.44 -3.44,-3.44h-13.76c-1.90812,0 -3.44,1.53188 -3.44,3.44v13.76h-3.44v-24.6175c0,-5.40187 -4.34031,-9.7825 -9.675,-9.7825zM3.44,68.8c-1.89469,0 -3.44,1.54531 -3.44,3.44v55.04c0,1.90813 1.54531,3.44 3.44,3.44h13.76c1.89469,0 3.44,-1.53187 3.44,-3.44v-17.2h3.44v-20.64h-3.44v-17.2c0,-1.89469 -1.54531,-3.44 -3.44,-3.44zM92.88,68.8h17.2l-17.2,27.52h17.2l-27.52,37.84l10.32,-30.96h-17.2z"></path></g></g></svg>