<svg width="18" height="16" viewBox="0 0 18 26" fill="none" xmlns="http://www.w3.org/2000/svg">
<path d="M6.37166 11.7497C7.06778 12.4536 8.01312 12.85 9 12.85C9.48854 12.85 9.97216 12.7527 10.4232 12.5638C10.8742 12.3749 11.2837 12.0982 11.6283 11.7497C11.973 11.4012 12.2461 10.9878 12.4323 10.5333C12.6185 10.0787 12.7143 9.59169 12.7143 9.1C12.7143 8.10721 12.3243 7.15398 11.6283 6.45031C10.9322 5.74645 9.98688 5.35 9 5.35C8.01312 5.35 7.06778 5.74645 6.37166 6.45031C5.67571 7.15398 5.28571 8.10721 5.28571 9.1C5.28571 10.0928 5.67571 11.046 6.37166 11.7497ZM9 25.2367C8.99796 25.2343 8.99592 25.2319 8.99386 25.2295C8.75055 24.9439 8.40214 24.5275 7.98368 24.0062C7.14631 22.9629 6.03062 21.5024 4.91591 19.8318C3.80025 18.1599 2.69162 16.2866 1.86339 14.4174C1.0323 12.5417 0.5 10.7062 0.5 9.1C0.5 6.81737 1.39686 4.62932 2.99154 3.01692C4.58604 1.40471 6.74745 0.5 9 0.5C11.2525 0.5 13.414 1.40471 15.0085 3.01692C16.6031 4.62932 17.5 6.81737 17.5 9.1C17.5 10.7062 16.9677 12.5417 16.1366 14.4174C15.3084 16.2866 14.1997 18.1599 13.0841 19.8318C11.9694 21.5024 10.8537 22.9629 10.0163 24.0062C9.59786 24.5275 9.24945 24.9439 9.00614 25.2295C9.00408 25.2319 9.00204 25.2343 9 25.2367Z" fill="#545776" stroke="black"/>
</svg>
