<svg xmlns="http://www.w3.org/2000/svg" x="0px" y="0px"
width="30" height="30"
viewBox="0 0 172 172"
style=" fill:#000000;"><g fill="none" fill-rule="nonzero" stroke="none" stroke-width="1" stroke-linecap="butt" stroke-linejoin="miter" stroke-miterlimit="10" stroke-dasharray="" stroke-dashoffset="0" font-family="none" font-weight="none" font-size="none" text-anchor="none" style="mix-blend-mode: normal"><path d="M0,172v-172h172v172z" fill="none"></path><g fill="#f0572d"><path d="M26.875,10.75c-8.84193,0 -16.125,7.28307 -16.125,16.125c0,6.95353 4.52545,12.876 10.75,15.11719v77.26563c-6.22455,2.24118 -10.75,8.16365 -10.75,15.11719c0,8.84193 7.28307,16.125 16.125,16.125c8.84193,0 16.125,-7.28307 16.125,-16.125c0,-6.95354 -4.52545,-12.87601 -10.75,-15.11719v-33.25781h43v33.25781c-6.22455,2.24118 -10.75,8.16365 -10.75,15.11719c0,8.84193 7.28307,16.125 16.125,16.125c8.84193,0 16.125,-7.28307 16.125,-16.125c0,-6.95354 -4.52545,-12.87601 -10.75,-15.11719v-33.25781h48.375c2.96841,-0.0003 5.3747,-2.40659 5.375,-5.375v-38.63281c6.22455,-2.24118 10.75,-8.16365 10.75,-15.11719c0,-8.84193 -7.28307,-16.125 -16.125,-16.125c-8.84193,0 -16.125,7.28307 -16.125,16.125c0,6.95353 4.52545,12.876 10.75,15.11719v33.25781h-43v-33.25781c6.22455,-2.24118 10.75,-8.16365 10.75,-15.11719c0,-8.84193 -7.28307,-16.125 -16.125,-16.125c-8.84193,0 -16.125,7.28307 -16.125,16.125c0,6.95353 4.52545,12.876 10.75,15.11719v33.25781h-43v-33.25781c6.22455,-2.24118 10.75,-8.16365 10.75,-15.11719c0,-8.84193 -7.28307,-16.125 -16.125,-16.125zM26.875,21.5c3.0322,0 5.375,2.3428 5.375,5.375c0,3.0322 -2.3428,5.375 -5.375,5.375c-3.0322,0 -5.375,-2.3428 -5.375,-5.375c0,-3.0322 2.3428,-5.375 5.375,-5.375zM80.625,21.5c3.0322,0 5.375,2.3428 5.375,5.375c0,3.0322 -2.3428,5.375 -5.375,5.375c-3.0322,0 -5.375,-2.3428 -5.375,-5.375c0,-3.0322 2.3428,-5.375 5.375,-5.375zM134.375,21.5c3.0322,0 5.375,2.3428 5.375,5.375c0,3.0322 -2.3428,5.375 -5.375,5.375c-3.0322,0 -5.375,-2.3428 -5.375,-5.375c0,-3.0322 2.3428,-5.375 5.375,-5.375zM118.25,96.75v53.75h10.75v-15.68408l9.40625,15.68408h12.09375l-13.08057,-21.81494c7.40777,-1.44252 13.08057,-8.00848 13.08057,-15.81006c0,-8.84221 -7.28279,-16.125 -16.125,-16.125h-5.375h-5.375zM129,107.5h5.375c3.02579,0 5.375,2.34921 5.375,5.375c0,3.02579 -2.34921,5.375 -5.375,5.375h-5.375zM26.875,129c3.0322,0 5.375,2.3428 5.375,5.375c0,3.0322 -2.3428,5.375 -5.375,5.375c-3.0322,0 -5.375,-2.3428 -5.375,-5.375c0,-3.0322 2.3428,-5.375 5.375,-5.375zM80.625,129c3.0322,0 5.375,2.3428 5.375,5.375c0,3.0322 -2.3428,5.375 -5.375,5.375c-3.0322,0 -5.375,-2.3428 -5.375,-5.375c0,-3.0322 2.3428,-5.375 5.375,-5.375z"></path></g></g></svg>