<svg xmlns="http://www.w3.org/2000/svg" x="0px" y="0px"
width="30" height="30"
viewBox="0 0 172 172"
style=" fill:#000000;"><g fill="none" fill-rule="nonzero" stroke="none" stroke-width="1" stroke-linecap="butt" stroke-linejoin="miter" stroke-miterlimit="10" stroke-dasharray="" stroke-dashoffset="0" font-family="none" font-weight="none" font-size="none" text-anchor="none" style="mix-blend-mode: normal"><path d="M0,172v-172h172v172z" fill="none"></path><g fill="#f0572d"><path d="M24.1875,18.8125v26.82251l34.9375,-0.75586v-26.06665zM67.16125,18.8125l-0.56689,25.90918l35.53064,-0.75586v-25.15332zM110.16125,18.8125l-0.54065,24.99585l35.5044,-0.75586v-24.23999zM24.1875,51.0625v21.55249l34.9375,0.75586v-22.30835zM66.46314,51.0625l-0.48291,22.43957l36.14478,0.78211v-23.22168zM109.46314,51.0625l-0.51441,23.3529l36.17627,0.78211v-24.13501zM24.1875,80.625v24.1875h34.9375v-24.1875zM65.8175,80.625l-0.54065,24.1875h36.84815v-24.1875zM108.8175,80.625l-0.43042,18.86499c7.36375,-5.13313 16.31292,-8.11499 25.98792,-8.11499c3.70875,0 7.31,0.43126 10.75,1.29126v-12.04126zM134.375,96.75c-20.7475,0 -37.625,16.8775 -37.625,37.625c0,20.7475 16.8775,37.625 37.625,37.625c20.7475,0 37.625,-16.8775 37.625,-37.625c0,-20.7475 -16.8775,-37.625 -37.625,-37.625zM134.375,104.8125c16.29969,0 29.5625,13.26281 29.5625,29.5625c0,16.29969 -13.26281,29.5625 -29.5625,29.5625c-16.29969,0 -29.5625,-13.26281 -29.5625,-29.5625c0,-16.29969 13.26281,-29.5625 29.5625,-29.5625zM24.1875,110.23999v26.82251h34.9375v-26.06665zM65.14563,111.12707l-0.56689,25.93543h24.10876c0,-9.37938 2.82146,-18.06042 7.63208,-25.28979zM131.6875,112.875l-2.57727,23.19018l-0.00525,0.00525l-0.07873,0.61414l0.01575,0.0105l-0.04199,0.36743h0.5354l16.77063,12.12l3.65857,-3.95252l-10.67126,-12.76562l-0.06299,-0.07348l-2.16785,-19.51587z"></path></g></g></svg>